<svg viewBox="0 0 512 88" xmlns="http://www.w3.org/2000/svg">
<g>
	<path d="M138.304,9.82c-5.972-3.299-12.941-4.952-20.9-4.952c-7.865,0-14.855,1.652-20.973,4.952
		c-6.116,3.302-10.876,8.083-14.273,14.346c-3.4,6.263-5.098,13.617-5.098,22.064s1.697,15.78,5.098,21.992
		c3.397,6.214,8.157,10.996,14.273,14.345c6.117,3.352,13.107,5.025,20.973,5.025c6.7,0,12.791-1.26,18.278-3.786
		c5.484-2.522,9.977-6.019,13.473-10.485c3.494-4.464,5.775-9.517,6.845-15.148h-21.7c-0.875,3.983-2.892,7.137-6.044,9.467
		c-3.157,2.331-7.115,3.496-11.87,3.496c-5.342,0-9.81-1.698-13.399-5.097c-3.594-3.397-5.536-8.689-5.826-15.875h59.13
		c0.486-2.622,0.729-4.954,0.729-6.991c0-7.378-1.628-13.957-4.879-19.735C148.886,17.662,144.275,13.122,138.304,9.82z
		 M136.338,41.134H97.159c0.387-6.602,2.476-11.602,6.262-15.001c3.788-3.398,8.448-5.098,13.982-5.098
		c5.437,0,10.025,1.7,13.763,5.098C134.903,29.532,136.629,34.532,136.338,41.134z"></path>
	<polygon points="203.162,66.039 182.628,5.888 160.634,5.888 190.49,86.573 215.542,86.573 245.398,5.888 223.553,5.888"></polygon>
	<path d="M311.716,9.82c-6.262-3.299-13.327-4.952-21.19-4.952c-7.865,0-14.929,1.652-21.19,4.952
		c-6.264,3.302-11.192,8.083-14.784,14.346c-3.594,6.263-5.39,13.617-5.39,22.064s1.796,15.78,5.39,21.992
		c3.592,6.214,8.521,10.996,14.784,14.345c6.262,3.352,13.325,5.025,21.19,5.025c7.863,0,14.929-1.674,21.19-5.025
		c6.262-3.349,11.189-8.131,14.783-14.345c3.592-6.212,5.389-13.545,5.389-21.992s-1.797-15.802-5.389-22.064
		C322.905,17.902,317.978,13.122,311.716,9.82z M305.09,63.78c-3.982,4.031-8.838,6.044-14.564,6.044
		c-5.731,0-10.584-2.013-14.564-6.044c-3.983-4.027-5.971-9.878-5.971-17.55c0-7.669,1.987-13.519,5.971-17.55
		c3.98-4.028,8.833-6.044,14.564-6.044c5.727,0,10.582,2.016,14.564,6.044c3.978,4.031,5.97,9.881,5.97,17.55
		C311.06,53.902,309.067,59.753,305.09,63.78z"></path>
	<path d="M390.996,4.723c-6.407,0-12.064,1.529-16.967,4.588c-4.904,3.058-8.426,7.307-10.56,12.743V5.888h-20.536v80.686h20.536
		V43.755c0-7.087,1.747-12.525,5.243-16.312c3.496-3.787,8.155-5.681,13.981-5.681c5.729,0,10.244,1.773,13.545,5.316
		c3.302,3.545,4.953,8.52,4.953,14.928v44.566h20.39V39.677c0-11.068-2.768-19.661-8.304-25.779
		C407.746,7.781,400.318,4.723,390.996,4.723z"></path>
	<path d="M512,43.173c0-7.378-1.627-13.957-4.879-19.735c-3.253-5.776-7.863-10.316-13.836-13.618
		c-5.971-3.299-12.938-4.952-20.899-4.952c-7.863,0-14.855,1.652-20.974,4.952c-6.117,3.302-10.873,8.083-14.271,14.346
		c-3.4,6.263-5.099,13.617-5.099,22.064s1.698,15.78,5.099,21.992c3.398,6.214,8.154,10.996,14.271,14.345
		c6.118,3.352,13.11,5.025,20.974,5.025c6.698,0,12.79-1.26,18.277-3.786c5.485-2.522,9.977-6.019,13.473-10.485
		c3.496-4.464,5.775-9.517,6.846-15.148h-21.702c-0.872,3.983-2.889,7.137-6.042,9.467c-3.158,2.331-7.116,3.496-11.87,3.496
		c-5.343,0-9.81-1.698-13.399-5.097c-3.594-3.397-5.536-8.689-5.825-15.875h59.129C511.758,47.542,512,45.21,512,43.173z
		 M491.32,41.134h-39.178c0.387-6.602,2.475-11.602,6.262-15.001c3.786-3.398,8.445-5.098,13.981-5.098
		c5.438,0,10.023,1.7,13.763,5.098C489.887,29.532,491.61,34.532,491.32,41.134z"></path>
	<g>
		<path d="M52.951,54.511c2.184-1.213,4.145-2.687,5.883-4.427c1.738-1.739,3.216-3.701,4.429-5.884
			c1.213-2.184,2.142-4.507,2.789-6.975c0.646-2.466,0.973-5.034,0.973-7.703c0-3.558-0.709-7.076-2.124-10.554
			c-1.416-3.476-3.378-6.59-5.883-9.341c-2.509-2.748-5.479-4.973-8.917-6.671c-3.439-1.699-7.179-2.548-11.22-2.548H0.062v17.452
			l19.895,0.018h17.589c2.264,0,4.368,1.052,6.308,3.153c1.941,2.104,2.912,4.935,2.912,8.493c0,3.478-0.851,6.329-2.547,8.552
			c-1.699,2.225-3.722,3.336-6.066,3.336H0l0.062,45.127h19.895v-27.78h12.98l0.002,0.004c0.018,0,12.785-0.16,20.016-4.245
			L52.951,54.511z"></path>
		<path d="M37.397,66.268l12.035,20.27h22.443L57.549,62.293C55.747,63.286,49.484,66.149,37.397,66.268z"></path>
	</g>
</g>
</svg>
